<svg version="1.0" xmlns="http://www.w3.org/2000/svg"
 width="48.000000pt" height="48.000000pt" viewBox="0 0 48.000000 48.000000"
 preserveAspectRatio="xMidYMid meet">

<g transform="translate(0.000000,48.000000) scale(0.100000,-0.100000)"
fill="#000000" stroke="none">
<path d="M352 464 c-6 -10 -25 -17 -54 -19 -26 -1 -51 -6 -57 -9 -5 -4 -20
-34 -32 -66 -16 -43 -27 -60 -40 -60 -10 0 -21 -4 -24 -10 -4 -6 13 -10 43
-10 45 0 49 -2 65 -35 9 -20 28 -40 41 -45 13 -5 27 -14 31 -19 10 -18 44 -12
55 8 22 42 -16 66 -61 39 -17 -11 -22 -10 -39 12 -11 14 -20 28 -20 33 0 4 25
7 55 7 42 0 60 -5 75 -20 22 -22 52 -15 64 15 14 38 -32 69 -63 41 -18 -17
-101 -23 -101 -8 0 17 37 42 63 42 15 0 27 5 27 11 0 6 -16 9 -37 7 -30 -2
-42 -10 -58 -35 -16 -26 -27 -32 -53 -33 l-33 0 28 53 c23 43 34 54 65 61 27
7 45 6 62 -4 28 -14 53 -8 62 15 14 35 -45 62 -64 29z m46 -16 c-3 -7 -11 -13
-18 -13 -7 0 -15 6 -17 13 -3 7 4 12 17 12 13 0 20 -5 18 -12z m32 -148 c0
-21 -24 -28 -35 -10 -8 14 3 30 21 30 8 0 14 -9 14 -20z m-64 -71 c8 -14 -11
-33 -25 -25 -11 7 -4 36 9 36 5 0 12 -5 16 -11z"/>
<path d="M133 400 c-28 -12 -61 -64 -69 -110 -3 -19 -14 -55 -24 -80 -19 -44
-19 -45 0 -62 11 -9 20 -27 20 -40 0 -43 22 -61 83 -66 47 -4 57 -8 61 -26 2
-12 4 -9 3 9 -2 29 -4 30 -52 33 -64 4 -79 17 -71 60 4 28 2 35 -14 39 -24 6
-24 5 -5 50 8 19 15 49 15 65 0 43 24 92 56 116 32 23 31 25 -3 12z"/>
<path d="M362 126 c-41 -55 -63 -116 -43 -116 6 0 11 9 11 19 0 11 11 33 25
49 23 27 61 102 52 102 -2 0 -22 -24 -45 -54z"/>
</g>
</svg>
