<?xml version="1.0" standalone="no"?>
<!DOCTYPE svg PUBLIC "-//W3C//DTD SVG 20010904//EN"
 "http://www.w3.org/TR/2001/REC-SVG-20010904/DTD/svg10.dtd">
<svg version="1.0" xmlns="http://www.w3.org/2000/svg"
 width="48.000000pt" height="48.000000pt" viewBox="0 0 48.000000 48.000000"
 preserveAspectRatio="xMidYMid meet">

<g transform="translate(0.000000,48.000000) scale(0.100000,-0.100000)"
fill="#000000" stroke="none">
<path d="M165 461 c-148 -67 -167 -270 -31 -332 45 -20 141 -25 166 -9 11 7 0
9 -36 4 -149 -18 -247 102 -184 225 25 50 71 88 123 102 152 41 272 -168 161
-279 -43 -43 -43 -50 0 -17 45 34 59 72 54 144 -10 136 -135 216 -253 162z"/>
<path d="M160 370 c0 -6 35 -10 84 -10 69 0 85 -3 90 -16 4 -9 5 -18 4 -19 -2
-1 -47 -5 -100 -7 -90 -5 -98 -4 -98 13 0 10 -4 21 -10 24 -6 4 -10 -23 -10
-75 l0 -81 118 3 117 3 0 78 c0 58 -4 80 -15 87 -20 13 -180 13 -180 0z m180
-105 c0 -38 -3 -45 -20 -45 -17 0 -20 7 -20 39 0 35 8 48 33 50 4 1 7 -19 7
-44z m-110 -5 l0 -40 -50 0 -50 0 0 33 c0 43 5 47 57 47 l43 0 0 -40z m50 -1
c0 -52 -24 -48 -28 4 -2 28 1 37 12 37 12 0 16 -11 16 -41z"/>
<path d="M360 136 c0 -3 14 -22 32 -42 25 -28 29 -39 21 -52 -18 -30 -46 -20
-71 26 -31 55 -40 47 -14 -12 24 -54 60 -70 92 -41 26 23 25 46 -1 79 -19 25
-59 53 -59 42z"/>
</g>
</svg>
