<?xml version="1.0" standalone="no"?>
<!DOCTYPE svg PUBLIC "-//W3C//DTD SVG 20010904//EN"
 "http://www.w3.org/TR/2001/REC-SVG-20010904/DTD/svg10.dtd">
<svg version="1.0" xmlns="http://www.w3.org/2000/svg"
 width="48.000000pt" height="48.000000pt" viewBox="0 0 48.000000 48.000000"
 preserveAspectRatio="xMidYMid meet">

<g transform="translate(0.000000,48.000000) scale(0.100000,-0.100000)"
fill="#000000" stroke="none">
<path d="M10 439 c-7 -12 -9 -33 -5 -47 l7 -27 13 35 c8 25 19 36 36 38 44 6
45 22 1 22 -32 0 -44 -5 -52 -21z"/>
<path d="M380 450 c0 -5 13 -10 30 -10 31 0 50 -22 50 -60 0 -12 5 -18 10 -15
14 9 13 68 -2 83 -14 14 -88 16 -88 2z"/>
<path d="M203 408 c-74 -19 -126 -115 -104 -189 6 -20 18 -42 26 -49 13 -11
11 -17 -14 -45 -27 -32 -49 -90 -38 -102 3 -3 15 15 27 39 30 59 59 88 89 89
25 1 24 1 -5 10 -45 13 -69 44 -68 89 2 53 32 101 78 124 51 25 108 10 136
-37 33 -54 25 -111 -24 -166 -18 -21 -18 -23 -3 -18 13 5 25 -5 48 -41 16 -26
32 -57 35 -69 10 -36 26 -27 19 10 -10 45 -31 83 -56 100 l-20 15 20 33 c13
22 21 51 21 82 0 40 -5 53 -32 83 -37 39 -86 55 -135 42z"/>
<path d="M207 342 c-19 -20 -23 -62 -7 -62 6 0 10 9 10 20 0 24 26 38 42 22 6
-6 5 -20 -6 -40 -24 -46 -19 -61 9 -27 30 37 33 80 6 95 -27 14 -35 13 -54 -8z"/>
<path d="M7 244 c-11 -12 -8 -69 5 -82 14 -14 88 -16 88 -2 0 6 -13 10 -29 10
-33 0 -41 9 -50 52 -3 16 -9 26 -14 22z"/>
<path d="M454 208 c-7 -24 -16 -34 -34 -36 -42 -6 -47 -22 -8 -22 54 0 84 39
59 78 -5 9 -11 3 -17 -20z"/>
<path d="M222 193 c4 -21 33 -25 33 -3 0 8 -8 16 -18 18 -14 3 -18 -1 -15 -15z"/>
</g>
</svg>
