<?xml version="1.0" standalone="no"?>
<!DOCTYPE svg PUBLIC "-//W3C//DTD SVG 20010904//EN"
 "http://www.w3.org/TR/2001/REC-SVG-20010904/DTD/svg10.dtd">
<svg version="1.0" xmlns="http://www.w3.org/2000/svg"
 width="48.000000pt" height="48.000000pt" viewBox="0 0 48.000000 48.000000"
 preserveAspectRatio="xMidYMid meet">

<g transform="translate(0.000000,48.000000) scale(0.100000,-0.100000)"
fill="#d080de" stroke="none">
<path d="M190 449 c-29 -12 -40 -27 -40 -56 0 -21 -5 -23 -50 -23 -56 0 -69
-12 -91 -88 -9 -33 -10 -48 -2 -62 7 -9 15 -49 19 -89 10 -107 7 -105 181
-109 91 -2 159 0 176 7 33 13 53 54 63 129 3 28 13 57 20 63 16 13 18 59 4
110 -11 39 -28 49 -87 49 -25 0 -33 4 -33 18 0 35 -23 51 -80 57 -30 3 -66 0
-80 -6z m141 -46 c8 -23 7 -23 -82 -23 -50 0 -88 3 -86 8 2 4 7 15 10 25 6 15
17 17 78 15 64 -3 73 -5 80 -25z m111 -61 c7 -6 12 -36 13 -64 l0 -52 -40 -12
-40 -12 33 -1 c30 -1 32 -3 26 -28 -26 -121 -27 -121 -97 -128 -34 -3 -111 -2
-172 2 l-109 8 -7 35 c-22 113 -22 110 6 110 18 0 25 -5 25 -20 0 -20 39 -38
59 -26 14 9 24 62 16 86 -10 30 -59 24 -63 -7 -4 -26 -9 -27 -47 -13 -27 10
-27 18 -4 97 12 39 25 41 241 39 104 -1 151 -5 160 -14z m-302 -119 c0 -16 -5
-35 -10 -43 -15 -25 -33 3 -25 39 8 39 35 42 35 4z"/>
<path d="M307 253 c-4 -3 -7 -15 -7 -25 0 -16 -9 -18 -67 -18 -53 -1 -64 -3
-50 -11 10 -6 41 -9 68 -7 41 2 49 0 49 -14 0 -23 16 -31 46 -24 25 7 31 34
18 84 -6 21 -42 31 -57 15z m43 -43 c0 -29 -4 -40 -15 -40 -11 0 -15 11 -15
40 0 29 4 40 15 40 11 0 15 -11 15 -40z"/>
</g>
</svg>
