<?xml version="1.0" standalone="no"?>
<!DOCTYPE svg PUBLIC "-//W3C//DTD SVG 20010904//EN"
 "http://www.w3.org/TR/2001/REC-SVG-20010904/DTD/svg10.dtd">
<svg version="1.0" xmlns="http://www.w3.org/2000/svg"
 width="48.000000pt" height="48.000000pt" viewBox="0 0 48.000000 48.000000"
 preserveAspectRatio="xMidYMid meet">

<g transform="translate(0.000000,48.000000) scale(0.100000,-0.100000)"
fill="#000000" stroke="none">
<path d="M208 419 l-13 -31 -69 6 c-39 4 -67 4 -63 0 6 -6 -38 -92 -53 -104
-16 -12 12 -71 41 -86 54 -27 109 -1 124 59 6 23 4 27 -14 27 -12 0 -21 6 -21
15 0 9 -8 28 -17 42 l-17 26 39 -6 c22 -4 54 -7 70 -7 30 0 30 -1 27 -40 -4
-36 10 -147 24 -192 4 -15 -1 -18 -31 -18 -30 0 -35 3 -31 18 22 72 33 222 16
222 -5 0 -10 -6 -10 -12 0 -62 -33 -245 -46 -260 -9 -9 -14 -24 -11 -31 7 -19
65 -29 116 -21 56 9 66 24 40 58 -15 19 -24 55 -35 133 -19 147 -20 140 24
148 20 3 47 9 60 12 l23 5 -22 -36 c-21 -37 -21 -55 1 -41 7 4 17 20 24 35
l12 28 22 -39 23 -39 -65 0 c-36 0 -67 -4 -70 -8 -3 -5 3 -24 12 -43 34 -67
125 -60 148 11 8 25 8 37 0 45 -6 6 -22 35 -36 63 -17 36 -30 50 -40 46 -8 -3
-35 -8 -60 -11 -42 -4 -46 -3 -62 26 -22 39 -43 39 -60 0z m42 -15 c0 -8 -7
-14 -15 -14 -17 0 -18 2 -9 24 7 18 24 12 24 -10z m-134 -100 c0 -1 -18 -4
-38 -8 l-37 -7 22 39 21 39 17 -31 c9 -17 16 -32 15 -32z m44 -34 c0 -5 -9
-19 -20 -30 -27 -27 -74 -26 -102 3 l-23 22 65 6 c36 3 68 6 73 7 4 1 7 -2 7
-8z m298 -5 c10 -9 -42 -45 -65 -45 -24 0 -73 34 -73 51 0 6 130 0 138 -6z
m-164 -191 c33 -13 2 -24 -67 -24 -65 1 -70 2 -53 15 20 15 91 20 120 9z"/>
</g>
</svg>
