<svg version="1.0" xmlns="http://www.w3.org/2000/svg"
 width="48.000000pt" height="48.000000pt" viewBox="0 0 48.000000 48.000000"
 preserveAspectRatio="xMidYMid meet">

<g transform="translate(0.000000,48.000000) scale(0.100000,-0.100000)"
fill="#000000" stroke="none">
<path d="M16 381 c-25 -27 -17 -63 17 -79 53 -25 95 25 67 79 -14 25 -61 25
-84 0z m58 -4 c28 -21 17 -52 -19 -52 -24 0 -31 5 -33 24 -2 13 2 28 10 32 18
12 21 11 42 -4z"/>
<path d="M226 384 c-38 -37 7 -103 57 -85 32 12 43 36 31 68 -12 34 -62 44
-88 17z m58 -10 c18 -18 18 -17 10 -38 -10 -27 -74 -14 -74 15 0 10 30 39 40
39 5 0 16 -7 24 -16z"/>
<path d="M336 362 c-3 -5 11 -12 32 -16 68 -10 104 -73 82 -141 -13 -38 -35
-55 -74 -55 -14 0 -28 -5 -32 -12 -5 -8 5 -9 36 -5 58 7 91 41 97 98 4 50 -10
84 -47 110 -30 21 -86 34 -94 21z"/>
<path d="M120 350 c0 -5 15 -10 34 -10 19 0 38 5 41 10 4 6 -10 10 -34 10 -23
0 -41 -4 -41 -10z"/>
<path d="M98 189 c-21 -17 -38 -37 -38 -44 0 -14 72 -65 92 -65 7 0 -3 14 -22
30 -30 26 -32 30 -12 25 32 -9 94 3 86 17 -4 6 -27 8 -55 6 -27 -3 -49 -3 -49
0 0 3 12 19 27 34 36 37 18 35 -29 -3z"/>
<path d="M242 184 c-41 -28 -16 -94 36 -94 47 0 69 61 34 93 -23 21 -41 21
-70 1z m58 -25 c9 -15 8 -24 -1 -35 -27 -33 -78 0 -58 38 13 24 46 23 59 -3z"/>
</g>
</svg>
