<svg version="1.0" xmlns="http://www.w3.org/2000/svg"
 width="48.000000pt" height="48.000000pt" viewBox="0 0 48.000000 48.000000"
 preserveAspectRatio="xMidYMid meet">

<g transform="translate(0.000000,48.000000) scale(0.100000,-0.100000)"
fill="#000000" stroke="none">
<path d="M100 473 c-48 -8 -82 -26 -91 -50 -13 -34 -11 -263 2 -301 13 -38 69
-63 137 -61 26 1 36 4 22 6 -14 2 -49 11 -78 19 -67 19 -72 31 -72 184 l0 118
31 -15 c35 -18 189 -20 233 -3 43 16 46 13 47 -42 1 -45 2 -49 9 -25 5 15 6
53 3 83 -5 43 -11 59 -29 71 -13 8 -29 13 -36 10 -8 -3 -2 -10 15 -17 37 -18
35 -45 -4 -59 -44 -15 -198 -14 -229 2 -60 30 -4 65 110 67 48 2 59 4 40 10
-27 9 -70 10 -110 3z"/>
<path d="M290 309 c-14 -6 -77 -9 -142 -7 -125 3 -141 -6 -38 -23 86 -14 210
5 210 32 0 5 -1 9 -2 8 -2 0 -14 -5 -28 -10z"/>
<path d="M36 231 c30 -33 244 -34 244 -1 0 4 -19 3 -42 -2 -41 -9 -128 -6
-186 8 -20 5 -24 4 -16 -5z"/>
<path d="M308 214 c-32 -17 -58 -61 -58 -98 0 -30 20 -76 32 -76 5 0 4 9 -2
19 -18 35 -12 88 14 118 19 22 32 28 66 28 35 0 47 -6 71 -33 32 -36 36 -60
15 -101 -17 -31 -53 -51 -99 -52 -29 0 -30 -1 -10 -9 51 -21 128 28 139 87 17
93 -83 163 -168 117z"/>
<path d="M30 166 c0 -22 115 -47 163 -36 l32 8 -35 1 c-32 1 -100 14 -142 27
-10 3 -18 3 -18 0z"/>
<path d="M364 131 c-21 -33 -30 -39 -41 -30 -22 19 -25 4 -4 -15 24 -22 36
-16 62 36 28 54 17 60 -17 9z"/>
</g>
</svg>
