<?xml version="1.0" standalone="no"?>
<!DOCTYPE svg PUBLIC "-//W3C//DTD SVG 20010904//EN"
 "http://www.w3.org/TR/2001/REC-SVG-20010904/DTD/svg10.dtd">
<svg version="1.0" xmlns="http://www.w3.org/2000/svg"
 width="48.000000pt" height="48.000000pt" viewBox="0 0 48.000000 48.000000"
 preserveAspectRatio="xMidYMid meet">

<g transform="translate(0.000000,48.000000) scale(0.100000,-0.100000)"
fill="#d080de" stroke="none">
<path d="M150 469 c-55 -17 -87 -46 -116 -105 -31 -64 -37 -152 -16 -216 28
-79 131 -148 221 -148 147 1 273 179 226 319 -18 56 -66 109 -121 136 -45 22
-144 29 -194 14z m180 -25 c34 -14 38 -19 28 -31 -13 -16 -54 -13 -105 8 -29
12 -35 11 -69 -13 -35 -25 -39 -26 -66 -12 -15 8 -28 17 -28 19 0 3 15 14 33
25 41 25 149 27 207 4z m-13 -64 c13 0 34 7 47 15 22 15 25 14 50 -15 32 -39
49 -101 41 -152 -9 -51 -29 -44 -35 12 -4 36 -10 46 -40 61 -43 23 -90 25 -90
4 0 -9 -10 -29 -22 -46 -19 -26 -21 -34 -11 -60 13 -34 0 -79 -23 -79 -23 0
-79 39 -102 69 -20 27 -25 29 -52 20 -16 -6 -33 -16 -37 -22 -4 -7 0 -8 13 -3
46 19 52 18 68 -12 18 -34 76 -72 111 -72 36 0 62 53 46 96 -10 28 -9 36 11
67 27 42 41 44 86 17 29 -18 33 -24 27 -50 -5 -22 -2 -33 14 -46 20 -17 20
-18 -9 -59 -16 -23 -40 -49 -54 -59 l-26 -16 0 32 c0 18 7 42 15 52 25 33 17
41 -11 12 -23 -22 -26 -31 -20 -66 6 -37 5 -40 -21 -46 -16 -3 -34 -7 -41 -10
-31 -9 -112 19 -151 53 -36 31 -73 82 -70 98 0 3 -3 19 -6 36 -4 17 -4 46 -1
64 6 28 12 35 39 41 25 5 34 3 42 -12 18 -33 54 -64 72 -64 17 1 17 2 -2 15
-18 15 -18 16 15 45 19 16 31 29 27 30 -17 0 -67 -31 -67 -43 0 -6 -9 3 -21
22 -18 30 -23 32 -54 27 -40 -8 -41 -6 -20 34 18 35 24 36 58 10 32 -25 36
-25 76 5 32 23 36 23 69 10 19 -8 45 -15 59 -15z"/>
</g>
</svg>
