<?xml version="1.0" standalone="no"?>
<!DOCTYPE svg PUBLIC "-//W3C//DTD SVG 20010904//EN"
 "http://www.w3.org/TR/2001/REC-SVG-20010904/DTD/svg10.dtd">
<svg version="1.0" xmlns="http://www.w3.org/2000/svg"
 width="48.000000pt" height="48.000000pt" viewBox="0 0 48.000000 48.000000"
 preserveAspectRatio="xMidYMid meet">

<g transform="translate(0.000000,48.000000) scale(0.100000,-0.100000)"
fill="#000000" stroke="none">
<path d="M303 459 c-17 -5 -43 -23 -57 -40 -25 -29 -27 -29 -65 -18 -47 14
-100 6 -134 -21 -45 -36 -62 -224 -28 -314 11 -28 12 -28 74 -22 51 6 70 3
111 -14 l48 -22 59 31 c37 19 74 31 98 31 31 0 41 4 46 20 3 11 11 20 16 20
10 0 10 197 0 244 -4 21 -14 32 -33 37 -16 4 -28 3 -28 -1 0 -5 10 -10 23 -12
21 -3 22 -7 25 -123 l3 -120 -54 3 c-34 2 -68 -2 -92 -12 -42 -18 -48 -17 -39
7 7 20 82 57 100 50 12 -4 14 19 14 131 l0 136 -26 10 c-14 6 -26 10 -27 9 -1
0 -16 -5 -34 -10z m58 -19 c5 0 9 -51 9 -114 l0 -114 -32 -11 c-18 -6 -44 -23
-59 -37 l-26 -25 -6 53 c-14 110 -9 183 14 212 24 30 57 47 77 40 8 -2 18 -4
23 -4z m-151 -70 c12 -7 16 -37 19 -135 l3 -125 -27 10 c-37 14 -85 13 -133
-4 -22 -8 -43 -12 -46 -9 -10 10 -7 176 4 215 6 21 18 42 28 47 22 13 132 14
152 1z m230 -263 c0 -9 -14 -14 -43 -14 -30 0 -55 -8 -82 -26 -46 -31 -73 -34
-117 -11 -24 13 -46 15 -96 10 -50 -5 -63 -4 -60 6 12 37 135 45 185 13 19
-13 27 -12 75 10 58 27 138 34 138 12z"/>
<path d="M79 313 c-12 -15 -12 -16 4 -10 10 4 34 7 53 7 21 0 33 4 29 10 -10
16 -71 12 -86 -7z"/>
<path d="M77 246 c-15 -11 -10 -13 35 -10 29 2 55 3 58 4 3 0 -2 5 -10 10 -21
14 -62 12 -83 -4z"/>
<path d="M82 177 c-9 -10 -1 -12 36 -10 26 1 49 2 52 3 3 0 -2 5 -10 10 -21
14 -66 12 -78 -3z"/>
</g>
</svg>
