<?xml version="1.0" standalone="no"?>
<!DOCTYPE svg PUBLIC "-//W3C//DTD SVG 20010904//EN"
 "http://www.w3.org/TR/2001/REC-SVG-20010904/DTD/svg10.dtd">
<svg version="1.0" xmlns="http://www.w3.org/2000/svg"
 width="48.000000pt" height="48.000000pt" viewBox="0 0 48.000000 48.000000"
 preserveAspectRatio="xMidYMid meet">

<g transform="translate(0.000000,48.000000) scale(0.100000,-0.100000)"
fill="#000000" stroke="none">
<path d="M226 464 c-3 -9 -9 -47 -12 -85 -7 -65 -15 -82 -29 -59 -11 17 -45
11 -45 -7 0 -36 71 -133 97 -133 34 0 123 105 123 145 0 19 -30 20 -56 0 -28
-21 -34 -18 -34 18 0 104 -25 172 -44 121z m39 -183 c2 -2 17 6 33 18 17 12
33 21 36 21 14 0 -25 -59 -60 -89 -35 -31 -37 -32 -56 -14 -24 22 -62 93 -49
93 5 0 14 -7 21 -15 26 -32 28 -26 46 120 l8 60 9 -95 c5 -52 10 -97 12 -99z"/>
<path d="M395 195 c0 -57 -4 -107 -8 -111 -5 -5 -72 -10 -149 -12 -111 -4
-142 -1 -149 9 -5 8 -9 59 -10 114 l-2 100 -10 -77 c-10 -83 -1 -146 23 -159
8 -4 32 -11 52 -14 37 -6 54 -25 22 -25 -8 0 -12 -5 -9 -10 8 -13 135 -13 155
0 13 8 12 10 -2 10 -10 0 -18 6 -18 13 0 9 21 17 57 23 55 9 58 11 65 44 9 37
1 168 -10 187 -4 6 -7 -35 -7 -92z m-125 -166 c0 -5 -16 -9 -35 -9 -41 0 -47
17 -7 22 31 4 42 1 42 -13z"/>
<path d="M160 133 c-100 -8 -80 -23 31 -22 90 0 221 15 163 18 -12 0 -48 3
-80 5 -32 2 -84 2 -114 -1z"/>
</g>
</svg>
