<?xml version="1.0" standalone="no"?>
<!DOCTYPE svg PUBLIC "-//W3C//DTD SVG 20010904//EN"
 "http://www.w3.org/TR/2001/REC-SVG-20010904/DTD/svg10.dtd">
<svg version="1.0" xmlns="http://www.w3.org/2000/svg"
 width="48.000000pt" height="48.000000pt" viewBox="0 0 48.000000 48.000000"
 preserveAspectRatio="xMidYMid meet">

<g transform="translate(0.000000,48.000000) scale(0.100000,-0.100000)"
fill="#000000" stroke="none">
<path d="M220 458 c0 -13 5 -30 10 -38 7 -11 10 -5 10 23 0 20 -4 37 -10 37
-5 0 -10 -10 -10 -22z"/>
<path d="M80 453 c0 -7 11 -25 25 -40 13 -15 25 -23 25 -16 0 7 -11 25 -25 40
-13 15 -25 23 -25 16z"/>
<path d="M236 354 c-22 -13 -34 -14 -53 -5 -40 18 -46 14 -40 -26 5 -31 2 -42
-19 -64 -26 -27 -25 -49 2 -49 22 0 17 -14 -17 -46 -36 -34 -93 -113 -86 -120
2 -2 37 34 77 81 41 47 77 85 82 85 16 0 8 -22 -20 -59 -41 -52 -84 -129 -80
-142 2 -6 30 30 62 79 58 89 59 90 76 70 21 -26 37 -17 48 25 6 24 16 34 40
41 39 11 40 22 7 48 -19 15 -25 29 -25 59 0 43 -9 47 -54 23z m39 -30 c-5 -30
-3 -39 14 -51 27 -18 27 -31 0 -35 -22 -3 -31 -15 -44 -53 -6 -18 -9 -17 -23
13 -14 28 -20 32 -56 32 l-39 0 22 24 c18 19 22 31 16 55 -6 31 -6 31 19 20
21 -10 30 -8 58 9 18 12 35 22 37 22 2 0 0 -16 -4 -36z"/>
<path d="M344 355 c-19 -14 -19 -14 1 -14 11 0 31 6 45 14 l25 14 -26 1 c-14
0 -34 -7 -45 -15z"/>
<path d="M0 301 c0 -5 11 -12 24 -15 13 -3 31 -9 40 -12 9 -3 16 -2 16 4 0 6
-14 15 -31 21 -39 13 -49 14 -49 2z"/>
<path d="M376 241 c11 -11 104 -19 104 -10 0 11 -30 19 -73 19 -25 0 -37 -4
-31 -9z"/>
<path d="M310 162 c0 -4 11 -20 25 -37 24 -30 34 -20 15 14 -10 19 -40 36 -40
23z"/>
</g>
</svg>
