<?xml version="1.0" standalone="no"?>
<!DOCTYPE svg PUBLIC "-//W3C//DTD SVG 20010904//EN"
 "http://www.w3.org/TR/2001/REC-SVG-20010904/DTD/svg10.dtd">
<svg version="1.0" xmlns="http://www.w3.org/2000/svg"
 width="48.000000pt" height="48.000000pt" viewBox="0 0 48.000000 48.000000"
 preserveAspectRatio="xMidYMid meet">

<g transform="translate(0.000000,48.000000) scale(0.100000,-0.100000)"
fill="#ffffff" stroke="none">
<path d="M123 459 c-59 -29 -89 -69 -103 -134 -13 -61 -9 -81 26 -142 39 -67
109 -93 188 -69 l46 14 19 -32 c57 -92 149 -126 165 -61 9 34 -14 75 -69 123
l-46 40 12 46 c17 67 7 141 -22 173 -31 34 -95 63 -139 63 -19 0 -54 -9 -77
-21z m161 -27 c50 -29 71 -67 70 -127 -2 -83 -34 -138 -94 -164 -57 -25 -88
-26 -134 -7 -52 22 -86 79 -86 146 0 78 24 118 91 153 59 31 98 30 153 -1z
m112 -297 c38 -38 45 -51 42 -78 -5 -48 -41 -40 -101 24 l-48 52 22 23 c12 13
26 24 31 24 5 0 29 -20 54 -45z"/>
<path d="M126 389 c-94 -74 -66 -214 44 -226 139 -14 214 171 95 233 -41 21
-107 18 -139 -7z m108 5 c12 -5 6 -13 -26 -36 -24 -17 -60 -47 -80 -66 -37
-35 -38 -36 -38 -11 0 34 33 92 61 106 26 14 58 16 83 7z m58 -42 l17 -29 -39
-22 c-22 -12 -62 -40 -90 -62 -42 -33 -54 -38 -66 -28 -8 7 -14 18 -12 25 3
12 155 141 168 143 3 1 13 -12 22 -27z m18 -66 c0 -7 -10 -28 -23 -47 -25 -38
-89 -65 -120 -52 -15 7 -6 17 55 60 79 56 88 60 88 39z"/>
</g>
</svg>
