<?xml version="1.0" standalone="no"?>
<!DOCTYPE svg PUBLIC "-//W3C//DTD SVG 20010904//EN"
 "http://www.w3.org/TR/2001/REC-SVG-20010904/DTD/svg10.dtd">
<svg version="1.0" xmlns="http://www.w3.org/2000/svg"
 width="48.000000pt" height="48.000000pt" viewBox="0 0 48.000000 48.000000"
 preserveAspectRatio="xMidYMid meet">

<g transform="translate(0.000000,48.000000) scale(0.100000,-0.100000)"
fill="#000000" stroke="none">
<path d="M125 460 c-27 -11 -58 -29 -67 -41 -20 -23 -24 -74 -8 -84 10 -6 15
20 12 58 -2 15 1 16 18 7 16 -9 20 -21 20 -63 0 -29 4 -59 10 -67 6 -10 -1
-23 -31 -48 -42 -36 -69 -79 -69 -109 1 -12 5 -7 14 12 7 17 23 39 35 49 l21
19 0 -51 c0 -28 5 -54 10 -57 6 -4 10 18 10 59 0 36 4 67 8 70 12 7 66 -51 67
-72 4 -54 6 -58 16 -33 5 13 7 32 4 41 -3 11 1 20 10 24 8 3 15 10 15 16 0 7
-6 8 -18 1 -13 -7 -25 -3 -47 14 -25 21 -27 25 -12 31 19 7 71 1 102 -11 19
-8 19 -8 3 11 -16 18 -16 22 -2 36 10 10 16 36 17 71 2 47 6 58 25 68 12 7 22
15 22 19 0 5 -88 39 -125 47 -5 1 -32 -6 -60 -17z m152 -34 c2 -2 -18 -13 -45
-24 -47 -20 -51 -21 -100 -5 -29 9 -52 20 -52 24 0 3 24 13 52 21 45 12 60 13
97 1 24 -7 46 -15 48 -17z m-32 -84 c-4 -4 -34 -7 -68 -7 -58 0 -62 2 -65 24
-3 19 0 22 13 17 42 -16 65 -17 92 -3 26 14 28 14 31 -5 2 -11 1 -23 -3 -26z
m-8 -46 c-30 -44 -108 -43 -119 2 -5 17 0 18 42 14 26 -2 56 0 66 6 26 15 30
7 11 -22z"/>
<path d="M280 203 c-59 -53 -50 -156 15 -187 45 -22 76 -20 116 7 49 32 71 82
58 129 -14 52 -51 78 -110 78 -39 0 -55 -6 -79 -27z m36 -28 c-10 -27 -21 -41
-35 -43 -31 -5 -27 24 9 60 17 17 33 29 35 26 2 -2 -2 -22 -9 -43z m109 20
c31 -31 32 -55 3 -55 -17 0 -27 10 -40 40 -14 34 -14 40 -2 40 8 0 26 -11 39
-25z m-57 -10 c17 -37 15 -45 -13 -45 -26 0 -29 9 -19 48 8 29 18 28 32 -3z
m-53 -112 c10 -33 10 -43 1 -43 -22 0 -56 40 -56 66 0 20 4 25 21 22 16 -2 25
-15 34 -45z m65 3 c0 -25 -4 -47 -9 -50 -14 -9 -31 19 -38 58 -5 34 -4 36 21
36 24 0 26 -3 26 -44z m70 26 c0 -10 -11 -29 -25 -42 l-25 -23 0 25 c0 39 10
58 31 58 12 0 19 -7 19 -18z"/>
</g>
</svg>
