<?xml version="1.0" standalone="no"?>
<!DOCTYPE svg PUBLIC "-//W3C//DTD SVG 20010904//EN"
 "http://www.w3.org/TR/2001/REC-SVG-20010904/DTD/svg10.dtd">
<svg version="1.0" xmlns="http://www.w3.org/2000/svg"
 width="48.000000pt" height="48.000000pt" viewBox="0 0 48.000000 48.000000"
 preserveAspectRatio="xMidYMid meet">

<g transform="translate(0.000000,48.000000) scale(0.100000,-0.100000)"
fill="#000000" stroke="none">
<path d="M149 468 c-34 -27 -98 -279 -75 -297 12 -9 106 -31 134 -31 28 1 -5
16 -65 30 -44 10 -53 16 -53 33 0 22 37 198 43 203 2 2 27 -3 57 -11 30 -8 67
-15 82 -15 15 0 29 -3 32 -8 2 -4 -2 -32 -10 -62 -8 -30 -12 -59 -10 -65 4
-11 7 -4 31 77 13 42 21 55 32 51 15 -6 14 -19 -3 -88 -11 -46 12 -21 30 31
17 52 14 64 -15 64 -28 0 -19 24 11 28 32 5 38 -11 28 -75 -11 -71 -5 -77 16
-17 29 85 19 110 -45 118 -19 3 -50 11 -70 20 -54 23 -131 30 -150 14z m138
-30 c48 -10 51 -12 41 -33 l-10 -22 -66 19 c-37 10 -77 18 -89 18 -26 0 -29
10 -10 29 12 12 32 11 134 -11z"/>
<path d="M72 403 c-13 -25 -60 -195 -68 -243 -7 -45 -16 -40 124 -63 45 -8 82
-11 82 -7 0 4 -41 15 -90 25 -50 10 -92 20 -94 24 -8 13 61 263 75 272 11 7
11 9 -3 9 -10 0 -21 -8 -26 -17z"/>
<path d="M156 331 c12 -13 94 -31 94 -21 0 4 -14 13 -31 19 -40 14 -77 15 -63
2z"/>
<path d="M141 251 c9 -6 36 -13 60 -17 35 -5 42 -4 32 6 -6 7 -33 14 -60 17
-35 3 -44 1 -32 -6z"/>
<path d="M303 210 c-17 -10 -37 -28 -42 -39 -18 -32 -13 -96 9 -122 24 -29 25
-22 4 20 -48 95 77 184 153 108 21 -20 28 -37 28 -67 0 -55 -30 -83 -98 -90
-47 -6 -49 -7 -24 -14 45 -13 104 9 127 47 65 106 -51 222 -157 157z"/>
<path d="M364 133 c-16 -21 -29 -40 -31 -42 -1 -2 -9 2 -18 9 -8 7 -15 8 -15
2 0 -16 29 -35 44 -29 16 6 61 86 53 94 -3 2 -18 -13 -33 -34z"/>
</g>
</svg>
