<?xml version="1.0" standalone="no"?>
<!DOCTYPE svg PUBLIC "-//W3C//DTD SVG 20010904//EN"
 "http://www.w3.org/TR/2001/REC-SVG-20010904/DTD/svg10.dtd">
<svg version="1.0" xmlns="http://www.w3.org/2000/svg"
 width="48.000000pt" height="48.000000pt" viewBox="0 0 48.000000 48.000000"
 preserveAspectRatio="xMidYMid meet">

<g transform="translate(0.000000,48.000000) scale(0.100000,-0.100000)"
fill="#000000" stroke="none">
<path d="M363 445 c-12 -8 -24 -29 -28 -45 -4 -17 -13 -30 -21 -30 -18 0 -53
-74 -54 -111 0 -20 8 -30 33 -42 57 -27 123 -40 145 -28 23 12 48 101 37 129
-4 9 -7 36 -6 58 4 69 -54 106 -106 69z m72 -19 c17 -12 26 -68 13 -81 -7 -7
-108 24 -108 34 0 17 42 61 59 61 9 0 26 -6 36 -14z m-25 -95 c51 -19 57 -34
36 -85 -13 -32 -19 -36 -53 -36 -21 0 -57 9 -81 20 -47 21 -47 22 -16 98 15
36 22 36 114 3z"/>
<path d="M345 290 c-4 -7 -3 -16 3 -22 14 -14 45 -2 40 15 -6 16 -34 21 -43 7z"/>
<path d="M165 358 c-22 -12 -54 -48 -55 -61 0 -4 17 5 38 21 20 17 51 34 67
40 l30 10 -30 1 c-16 0 -39 -5 -50 -11z"/>
<path d="M60 218 c-21 -23 -26 -63 -11 -87 6 -9 2 -20 -14 -35 -13 -11 -27
-32 -30 -46 -6 -21 -2 -19 28 16 32 36 40 41 79 40 53 -1 63 -8 88 -54 18 -36
19 -36 20 -10 0 14 -11 39 -23 55 -18 21 -23 37 -19 65 8 68 -71 106 -118 56z
m81 -8 c19 -11 25 -43 13 -74 -7 -19 -64 -22 -82 -4 -17 17 -15 54 4 72 18 19
38 20 65 6z"/>
<path d="M339 143 c-13 -21 -40 -46 -59 -55 -33 -16 -34 -17 -9 -18 33 0 73
31 89 70 18 45 7 46 -21 3z"/>
</g>
</svg>
