<?xml version="1.0" standalone="no"?>
<!DOCTYPE svg PUBLIC "-//W3C//DTD SVG 20010904//EN"
 "http://www.w3.org/TR/2001/REC-SVG-20010904/DTD/svg10.dtd">
<svg version="1.0" xmlns="http://www.w3.org/2000/svg"
 width="48.000000pt" height="48.000000pt" viewBox="0 0 48.000000 48.000000"
 preserveAspectRatio="xMidYMid meet">

<g transform="translate(0.000000,48.000000) scale(0.100000,-0.100000)"
fill="#000000" stroke="none">
<path d="M105 473 c-76 -12 -30 -18 118 -15 96 2 173 -1 190 -7 27 -10 27 -11
27 -106 l0 -95 -197 2 -198 3 0 92 c0 50 -3 89 -7 87 -5 -3 -8 -54 -8 -113 0
-154 -12 -145 215 -149 103 -2 191 0 196 5 15 15 30 200 20 244 -5 22 -12 44
-16 47 -8 8 -296 12 -340 5z m324 -249 c2 -2 1 -10 -2 -19 -5 -13 -32 -15
-169 -15 -179 0 -208 4 -208 29 0 15 17 17 188 13 103 -2 189 -6 191 -8z"/>
<path d="M235 129 c72 -3 135 -7 142 -8 6 0 18 -21 26 -46 16 -45 16 -45 -8
-51 -32 -8 -352 -1 -360 8 -4 4 5 28 20 54 15 26 22 44 16 40 -6 -4 -23 -27
-37 -52 -20 -34 -24 -48 -15 -57 8 -8 75 -11 214 -12 197 0 202 1 205 21 2 11
-6 41 -17 67 l-20 47 -148 -2 -148 -1 130 -8z"/>
<path d="M100 90 c0 -5 9 -10 20 -10 11 0 20 5 20 10 0 6 -9 10 -20 10 -11 0
-20 -4 -20 -10z"/>
<path d="M175 90 c3 -5 12 -10 20 -10 8 0 17 5 20 10 4 6 -5 10 -20 10 -15 0
-24 -4 -20 -10z"/>
<path d="M250 90 c0 -5 9 -10 19 -10 11 0 23 5 26 10 4 6 -5 10 -19 10 -14 0
-26 -4 -26 -10z"/>
<path d="M325 90 c3 -5 15 -10 26 -10 10 0 19 5 19 10 0 6 -12 10 -26 10 -14
0 -23 -4 -19 -10z"/>
<path d="M75 50 c-4 -6 5 -10 19 -10 14 0 26 5 26 10 0 6 -9 10 -19 10 -11 0
-23 -4 -26 -10z"/>
<path d="M150 50 c0 -6 33 -10 80 -10 47 0 80 4 80 10 0 6 -33 10 -80 10 -47
0 -80 -4 -80 -10z"/>
<path d="M340 50 c0 -5 12 -10 26 -10 14 0 23 4 19 10 -3 6 -15 10 -26 10 -10
0 -19 -4 -19 -10z"/>
</g>
</svg>
