<?xml version="1.0" standalone="no"?>
<!DOCTYPE svg PUBLIC "-//W3C//DTD SVG 20010904//EN"
 "http://www.w3.org/TR/2001/REC-SVG-20010904/DTD/svg10.dtd">
<svg version="1.0" xmlns="http://www.w3.org/2000/svg"
 width="48.000000pt" height="48.000000pt" viewBox="0 0 48.000000 48.000000"
 preserveAspectRatio="xMidYMid meet">

<g transform="translate(0.000000,48.000000) scale(0.100000,-0.100000)"
fill="#000000" stroke="none">
<path d="M204 438 c-40 -31 -44 -38 -44 -80 0 -31 5 -39 36 -57 45 -27 50 -26
91 5 27 21 33 32 33 64 0 32 -6 43 -33 64 -41 32 -47 32 -83 4z m76 -29 c0
-14 -31 -18 -56 -7 l-25 12 22 12 c17 9 27 9 41 0 10 -6 18 -14 18 -17z m-52
-68 c2 -17 0 -31 -5 -31 -22 1 -37 22 -39 55 -1 34 0 35 20 22 12 -8 22 -27
24 -46z m72 21 c0 -21 -7 -32 -25 -40 -23 -11 -25 -10 -25 17 0 24 17 42 48
50 1 1 2 -12 2 -27z"/>
<path d="M68 363 c-29 -32 -40 -69 -29 -98 7 -16 9 -13 15 18 4 21 21 53 38
72 36 42 15 49 -24 8z"/>
<path d="M378 374 c28 -19 52 -65 52 -99 0 -14 5 -25 10 -25 6 0 10 18 10 41
0 31 -6 47 -29 70 -16 16 -38 29 -47 29 -16 0 -15 -2 4 -16z"/>
<path d="M45 228 c-41 -30 -45 -37 -45 -81 0 -31 5 -40 33 -57 42 -26 59 -25
96 6 25 20 31 34 31 64 0 31 -6 42 -34 64 -41 31 -43 31 -81 4z m70 -22 c17
-12 17 -13 -8 -20 -40 -10 -79 13 -44 27 21 9 33 7 52 -7z m-64 -36 c19 -11
28 -70 10 -70 -28 0 -41 14 -41 46 0 37 2 39 31 24z m73 -57 c-27 -19 -34 -16
-34 15 0 20 7 32 23 39 19 9 22 7 25 -15 2 -16 -3 -31 -14 -39z"/>
<path d="M357 223 c-34 -24 -37 -30 -37 -73 0 -43 2 -47 35 -63 47 -22 52 -22
92 9 27 21 33 32 33 64 0 34 -5 43 -37 65 -21 14 -40 25 -43 25 -3 0 -22 -12
-43 -27z m78 -17 c17 -12 17 -13 -8 -20 -40 -10 -79 13 -44 27 21 9 33 7 52
-7z m-64 -36 c19 -11 28 -70 10 -70 -28 0 -41 14 -41 46 0 37 2 39 31 24z m84
-17 c0 -25 -19 -52 -37 -53 -5 0 -8 13 -8 28 0 20 7 32 23 40 12 6 22 11 22
11 0 1 0 -11 0 -26z"/>
<path d="M140 70 c0 -18 54 -50 84 -50 33 0 96 33 96 50 0 14 -11 13 -29 -4
-29 -25 -73 -28 -113 -7 -21 10 -38 15 -38 11z"/>
</g>
</svg>
