<?xml version="1.0" standalone="no"?>
<!DOCTYPE svg PUBLIC "-//W3C//DTD SVG 20010904//EN"
 "http://www.w3.org/TR/2001/REC-SVG-20010904/DTD/svg10.dtd">
<svg version="1.0" xmlns="http://www.w3.org/2000/svg"
 width="48.000000pt" height="48.000000pt" viewBox="0 0 48.000000 48.000000"
 preserveAspectRatio="xMidYMid meet">

<g transform="translate(0.000000,48.000000) scale(0.100000,-0.100000)"
fill="#000000" stroke="none">
<path d="M135 470 c-31 -6 -19 -7 52 -9 101 -1 114 -10 93 -66 -13 -33 -6 -45
26 -45 27 0 89 28 81 37 -3 2 -14 0 -25 -6 -44 -23 -60 -14 -64 34 -4 56 11
59 66 13 l38 -31 -6 -81 c-9 -107 -30 -214 -45 -229 -8 -8 -64 -13 -168 -15
-148 -4 -155 -3 -148 15 26 60 37 131 40 248 1 72 1 108 -1 80 -11 -141 -26
-240 -45 -291 -30 -79 -29 -80 176 -74 61 1 124 8 142 15 36 15 45 45 64 219
10 92 9 101 -9 125 -39 54 -79 71 -156 70 -39 -1 -89 -5 -111 -9z"/>
<path d="M446 288 c-9 -121 -29 -226 -48 -244 -11 -12 -49 -15 -171 -17 -86
-1 -157 -5 -157 -8 0 -32 313 -20 346 13 28 28 71 348 47 348 -6 0 -13 -42
-17 -92z"/>
<path d="M117 283 c-4 -3 -6 -34 -6 -67 1 -34 4 -49 6 -33 3 17 10 27 22 27
20 0 41 19 41 36 0 28 -46 55 -63 37z m41 -36 c2 -10 -4 -20 -13 -23 -21 -8
-25 -3 -18 24 6 25 26 24 31 -1z"/>
<path d="M199 273 c-3 -27 4 -89 11 -97 13 -13 60 21 60 42 0 27 -29 62 -51
62 -10 0 -19 -3 -20 -7z m48 -35 c12 -28 7 -48 -13 -48 -9 0 -14 11 -14 35 0
40 12 46 27 13z"/>
<path d="M297 273 c-11 -10 -8 -91 3 -98 6 -4 10 6 10 24 0 20 6 31 18 34 15
4 15 5 -1 6 -26 1 -16 24 14 32 22 6 22 7 -7 8 -17 1 -34 -2 -37 -6z"/>
</g>
</svg>
