<?xml version="1.0" standalone="no"?>
<!DOCTYPE svg PUBLIC "-//W3C//DTD SVG 20010904//EN"
 "http://www.w3.org/TR/2001/REC-SVG-20010904/DTD/svg10.dtd">
<svg version="1.0" xmlns="http://www.w3.org/2000/svg"
 width="48.000000pt" height="48.000000pt" viewBox="0 0 48.000000 48.000000"
 preserveAspectRatio="xMidYMid meet">

<g transform="translate(0.000000,48.000000) scale(0.100000,-0.100000)"
fill="#000000" stroke="none">
<path d="M140 459 c-101 -40 -169 -202 -124 -292 32 -62 98 -118 141 -117 11
1 2 9 -21 20 -40 20 -86 58 -86 70 0 14 81 -8 96 -26 13 -16 15 -16 10 -2 -3
10 2 19 12 23 15 6 14 8 -5 16 -19 7 -23 16 -23 49 0 38 2 40 31 40 17 0 28 4
24 10 -3 6 -18 10 -31 10 -25 0 -25 2 -19 43 4 23 10 46 13 51 5 9 104 2 122
-9 5 -3 10 -22 10 -41 0 -21 4 -33 10 -29 6 3 10 22 10 41 0 31 3 34 29 34 17
0 33 5 36 10 4 6 -10 10 -34 10 -34 0 -43 5 -55 28 -14 25 -15 26 -16 5 0 -21
-5 -23 -50 -23 -27 0 -50 3 -50 6 0 17 25 47 53 64 l32 20 -45 -1 c-25 0 -56
-5 -70 -10z m29 -36 c-30 -35 -84 -62 -97 -49 -10 10 32 48 73 67 57 27 61 24
24 -18z m-45 -110 c-3 -27 -8 -49 -9 -51 -1 -1 -21 0 -44 4 -45 7 -50 18 -26
64 13 25 22 30 51 30 l35 0 -7 -47z m-23 -73 c15 0 19 -8 19 -40 0 -38 -1 -40
-32 -40 -45 0 -55 9 -63 54 l-8 39 33 -6 c18 -4 41 -7 51 -7z"/>
<path d="M301 453 c0 -5 19 -22 42 -38 29 -21 48 -46 61 -80 24 -58 24 -60 31
-53 10 10 -26 105 -47 125 -27 25 -88 57 -87 46z"/>
<path d="M285 233 c-34 -9 -63 -33 -69 -59 -8 -30 21 -139 40 -155 19 -16 131
-6 172 15 18 9 32 23 32 31 0 9 6 24 12 35 9 14 10 25 3 34 -6 8 -23 35 -40
60 -29 44 -31 45 -80 44 -27 0 -59 -3 -70 -5z m115 -22 c0 -4 -19 -11 -43 -14
-53 -7 -97 -23 -97 -35 0 -5 23 -3 52 4 29 8 67 14 84 14 40 0 54 -27 19 -36
-47 -12 -38 -64 12 -64 15 0 23 -5 21 -12 -6 -19 -66 -37 -124 -37 -51 -1 -52
-1 -68 39 -9 22 -16 58 -16 79 0 33 4 41 33 55 34 16 127 22 127 7z m60 -85
c0 -16 -37 -32 -48 -21 -7 7 25 35 40 35 4 0 8 -6 8 -14z"/>
</g>
</svg>
