<?xml version="1.0" standalone="no"?>
<!DOCTYPE svg PUBLIC "-//W3C//DTD SVG 20010904//EN"
 "http://www.w3.org/TR/2001/REC-SVG-20010904/DTD/svg10.dtd">
<svg version="1.0" xmlns="http://www.w3.org/2000/svg"
 width="48.000000pt" height="48.000000pt" viewBox="0 0 48.000000 48.000000"
 preserveAspectRatio="xMidYMid meet">

<g transform="translate(0.000000,48.000000) scale(0.100000,-0.100000)"
fill="#000000" stroke="none">
<path d="M396 464 c-9 -8 -16 -22 -16 -29 0 -20 28 -45 50 -45 28 0 52 29 44
54 -12 38 -50 48 -78 20z m54 -23 c0 -26 -17 -36 -35 -21 -23 19 -18 40 10 40
18 0 25 -5 25 -19z"/>
<path d="M26 377 c-12 -9 -17 -23 -14 -42 3 -26 8 -30 37 -33 49 -5 70 38 35
72 -19 19 -35 20 -58 3z m49 -32 c0 -25 -40 -33 -49 -10 -9 24 2 37 27 33 14
-2 22 -10 22 -23z"/>
<path d="M361 362 c-16 -23 -26 -28 -49 -24 -16 2 -43 -3 -60 -12 -25 -13 -40
-14 -74 -6 -54 12 -58 12 -58 1 0 -5 22 -14 49 -21 36 -8 48 -16 44 -26 -7
-20 16 -73 38 -84 23 -13 65 -13 90 1 15 8 24 7 35 -2 8 -6 18 -9 22 -5 4 4
-1 13 -10 20 -11 8 -15 20 -11 34 3 12 0 36 -6 53 -9 26 -8 35 9 56 11 14 20
30 20 34 0 18 -19 8 -39 -19z m-15 -67 c19 -30 9 -73 -22 -87 -54 -25 -108 24
-88 79 16 46 82 50 110 8z"/>
<path d="M416 184 c-22 -21 -4 -54 29 -54 28 0 43 33 25 55 -16 19 -35 19 -54
-1z m35 -19 c-1 -15 -24 -12 -29 3 -3 9 2 13 12 10 10 -1 17 -7 17 -13z"/>
<path d="M145 143 c-32 -26 -54 -48 -47 -51 10 -3 132 83 132 94 0 14 -33 -2
-85 -43z"/>
<path d="M290 145 c0 -14 5 -25 10 -25 6 0 10 11 10 25 0 14 -4 25 -10 25 -5
0 -10 -11 -10 -25z"/>
<path d="M250 95 c-24 -29 18 -83 55 -69 19 8 41 44 25 44 -5 0 -10 -4 -10
-10 0 -5 -12 -10 -26 -10 -21 0 -25 4 -22 23 2 17 9 22 31 20 15 -1 25 2 22 8
-9 14 -61 11 -75 -6z"/>
<path d="M16 74 c-9 -8 -16 -22 -16 -29 0 -21 29 -45 55 -45 22 0 45 25 45 49
0 16 -30 41 -50 41 -10 0 -26 -7 -34 -16z m58 -19 c8 -22 -21 -40 -39 -25 -18
15 -20 37 -2 43 17 6 34 -2 41 -18z"/>
</g>
</svg>
