<?xml version="1.0" standalone="no"?>
<!DOCTYPE svg PUBLIC "-//W3C//DTD SVG 20010904//EN"
 "http://www.w3.org/TR/2001/REC-SVG-20010904/DTD/svg10.dtd">
<svg version="1.0" xmlns="http://www.w3.org/2000/svg"
 width="48.000000pt" height="48.000000pt" viewBox="0 0 48.000000 48.000000"
 preserveAspectRatio="xMidYMid meet">

<g transform="translate(0.000000,48.000000) scale(0.100000,-0.100000)"
fill="#000000" stroke="none">
<path d="M168 464 c-91 -28 -152 -112 -152 -210 -1 -50 4 -68 27 -102 15 -23
33 -42 39 -42 6 0 2 10 -9 22 -31 34 -43 63 -43 100 0 33 1 34 35 30 21 -3 35
-10 35 -18 0 -8 5 -14 10 -14 6 0 10 7 10 15 0 8 9 15 20 15 11 0 20 5 20 10
0 6 -9 10 -20 10 -23 0 -23 -2 -9 39 11 31 12 31 77 31 37 0 77 3 89 6 17 5
25 -1 37 -25 21 -40 20 -47 -6 -56 -23 -8 -23 -8 2 -12 14 -3 28 -10 32 -17 6
-8 8 -8 8 2 0 7 15 12 40 12 35 0 40 -3 40 -22 -1 -32 -36 -107 -55 -114 -8
-3 -15 -10 -15 -15 0 -25 44 19 66 64 41 89 25 176 -47 244 -65 61 -137 76
-231 47z m97 -10 c14 -6 51 -62 43 -69 -7 -6 -148 -13 -148 -7 0 9 72 82 81
82 4 0 15 -3 24 -6z m-106 -44 c-21 -26 -40 -40 -56 -40 -13 0 -23 4 -23 9 0
15 74 63 108 70 2 1 -12 -17 -29 -39z m198 15 c50 -30 55 -45 14 -45 -23 0
-34 8 -50 35 -24 42 -21 43 36 10z m-242 -97 c-10 -46 -12 -48 -51 -48 -39 0
-39 -1 -20 45 13 29 20 35 46 35 30 0 31 -1 25 -32z m324 1 c16 -47 15 -49
-28 -49 -33 0 -41 4 -46 23 -18 60 -19 57 23 57 36 0 41 -3 51 -31z"/>
<path d="M198 253 c-67 -54 -97 -86 -90 -97 4 -6 7 -32 8 -58 2 -39 -1 -47
-18 -51 -26 -7 -19 -29 13 -38 47 -13 254 -10 274 5 23 17 14 46 -15 46 -21 0
-22 10 -5 96 6 27 -94 124 -129 124 -2 0 -19 -12 -38 -27z m117 -47 l40 -35
-114 -1 c-127 0 -129 3 -44 59 51 34 55 33 118 -23z m-125 -101 c0 -41 -2 -45
-25 -45 -19 0 -25 5 -25 23 0 12 -3 32 -6 45 -6 19 -3 22 25 22 30 0 31 -1 31
-45z m72 0 c-4 -40 -7 -45 -28 -45 -22 0 -24 4 -24 45 0 42 2 45 28 45 26 0
27 -2 24 -45z m73 0 c0 -42 -2 -45 -27 -45 -26 0 -28 3 -28 45 0 43 2 45 28
45 26 0 28 -2 27 -45z m45 -75 c0 -6 -53 -10 -140 -10 -87 0 -140 4 -140 10 0
6 53 10 140 10 87 0 140 -4 140 -10z"/>
</g>
</svg>
