<?xml version="1.0" standalone="no"?>
<!DOCTYPE svg PUBLIC "-//W3C//DTD SVG 20010904//EN"
 "http://www.w3.org/TR/2001/REC-SVG-20010904/DTD/svg10.dtd">
<svg version="1.0" xmlns="http://www.w3.org/2000/svg"
 width="48.000000pt" height="48.000000pt" viewBox="0 0 48.000000 48.000000"
 preserveAspectRatio="xMidYMid meet">

<g transform="translate(0.000000,48.000000) scale(0.100000,-0.100000)"
fill="#000000" stroke="none">
<path d="M131 470 c-80 -17 -84 -31 -46 -146 l25 -75 -25 -43 c-34 -59 -48
-134 -30 -163 26 -39 148 -53 274 -32 71 12 89 22 101 53 9 25 -15 120 -41
163 -15 24 -18 37 -10 50 5 10 14 41 19 68 6 28 14 60 17 73 6 19 2 24 -31 38
-46 19 -189 27 -253 14z m247 -27 c14 -3 22 -13 22 -25 0 -15 -3 -18 -12 -10
-23 18 -118 32 -176 26 -70 -7 -122 -22 -122 -35 0 -6 8 -6 19 1 25 13 221 13
255 0 l25 -9 -18 -63 -18 -63 -106 -3 c-68 -2 -107 -7 -107 -13 0 -8 36 -10
110 -7 l110 3 19 -45 c34 -80 33 -83 -29 -93 -53 -8 -268 -2 -278 8 -3 2 9 34
27 69 l32 65 -21 63 c-11 35 -25 71 -30 80 -5 10 -7 24 -4 32 6 14 21 19 99
30 34 5 169 -2 203 -11z m-143 -358 c55 0 117 3 138 7 36 7 37 6 37 -22 0 -39
-22 -45 -180 -44 -139 1 -170 10 -170 50 0 24 2 24 38 17 20 -4 82 -8 137 -8z"/>
<path d="M148 383 c-33 -5 -36 -26 -12 -81 19 -43 31 -27 15 20 -6 17 -11 35
-11 39 0 5 43 9 96 9 88 0 96 -2 89 -17 -4 -10 -9 -34 -12 -53 -4 -27 -3 -32
6 -24 18 17 32 87 20 99 -10 10 -144 16 -191 8z"/>
<path d="M229 181 c-29 -28 -49 -54 -45 -58 4 -4 30 16 58 45 29 28 49 54 46
57 -4 4 -30 -16 -59 -44z"/>
<path d="M155 195 c-15 -14 -24 -29 -21 -33 4 -3 19 6 33 21 15 14 24 29 21
33 -4 3 -19 -6 -33 -21z"/>
<path d="M301 164 c-31 -40 -25 -52 9 -19 17 16 30 32 30 37 0 16 -19 7 -39
-18z"/>
<path d="M280 55 c0 -9 5 -15 11 -13 6 2 11 8 11 13 0 5 -5 11 -11 13 -6 2
-11 -4 -11 -13z"/>
<path d="M346 62 c-3 -6 -1 -14 5 -17 15 -10 25 3 12 16 -7 7 -13 7 -17 1z"/>
</g>
</svg>
