<?xml version="1.0" standalone="no"?>
<!DOCTYPE svg PUBLIC "-//W3C//DTD SVG 20010904//EN"
 "http://www.w3.org/TR/2001/REC-SVG-20010904/DTD/svg10.dtd">
<svg version="1.0" xmlns="http://www.w3.org/2000/svg"
 width="48.000000pt" height="48.000000pt" viewBox="0 0 48.000000 48.000000"
 preserveAspectRatio="xMidYMid meet">

<g transform="translate(0.000000,48.000000) scale(0.100000,-0.100000)"
fill="#000000" stroke="none">
<path d="M141 470 c-29 -5 -57 -12 -62 -17 -4 -4 -13 -70 -19 -146 -6 -76 -18
-159 -25 -185 -8 -26 -11 -50 -6 -55 5 -5 83 -11 172 -14 185 -6 194 -3 209
62 5 21 10 92 11 157 l2 117 -44 40 c-24 22 -48 40 -54 40 -5 0 11 -19 38 -42
l47 -43 0 -70 c-1 -94 -17 -213 -32 -232 -10 -12 -38 -14 -165 -10 -84 3 -155
7 -158 10 -3 3 -1 26 5 51 5 25 12 92 15 149 10 174 6 166 73 174 31 3 75 10
97 14 l40 8 -45 0 c-25 0 -69 -4 -99 -8z"/>
<path d="M296 408 c-4 -20 -5 -41 -1 -47 9 -15 67 -14 88 2 15 10 11 12 -27 9
l-45 -4 -3 39 -4 38 -8 -37z"/>
<path d="M184 285 c-10 -16 -17 -48 -18 -82 -1 -52 1 -57 25 -63 14 -4 43 -4
65 -1 l39 7 -2 63 c-2 72 -20 101 -64 101 -19 0 -34 -8 -45 -25z m86 -14 c15
-30 14 -31 -40 -31 -54 0 -59 4 -33 32 21 24 60 23 73 -1z m-47 -63 l4 -23 8
23 c4 12 16 22 26 22 15 0 19 -7 19 -34 0 -31 -3 -34 -36 -39 -49 -8 -74 6
-74 43 0 25 4 30 24 30 18 0 26 -7 29 -22z"/>
<path d="M446 288 c-3 -13 -7 -68 -9 -123 -2 -57 -9 -110 -16 -124 l-13 -24
-159 6 c-88 4 -159 3 -159 -2 0 -17 301 -30 326 -13 26 17 37 62 42 178 4 114
-1 157 -12 102z"/>
</g>
</svg>
